mtllib square-shadow-box.mtl
g Frame

# Vertex Positions:
v -50.44453 104.61913 -7.38102
v 50.44456 104.61912 -7.38102
v -50.44453 104.61913 10.83258
v -0.0033 104.61913 10.83258
v -0.0033 104.61913 10.83258
v 50.44456 104.61912 -7.38102
v 25.22063 104.61912 10.83258
v 50.44456 104.61911 10.83258
v -25.22061 104.61913 10.83258
v -50.44453 104.61913 10.83258
v -0.0033 104.61913 10.83258
v 54.17457 108.34914 -10.83988
v -54.17456 108.34914 -10.83988
v 54.17457 108.34913 10.83258
v -54.17456 108.34914 10.83258
v 25.22063 104.61912 10.83258
v 50.44456 104.61911 10.83258
v 54.17457 108.34913 10.83258
v -25.22061 104.61913 10.83258
v 25.22063 104.61912 10.83258
v 54.17457 108.34913 10.83258
v -25.22061 104.61913 10.83258
v 54.17457 108.34913 10.83258
v -50.44453 104.61913 10.83258
v -54.17456 108.34914 10.83258
v -0.0033 104.61913 10.83258
v 25.22063 104.61912 10.83258
v -25.22061 104.61913 10.83258
v -25.22062 3.73003 10.83257
v -50.44455 3.73003 10.83257
v -54.17457 0.00001 10.83257
v 25.22062 3.73003 10.83257
v -25.22062 3.73003 10.83257
v -54.17457 0.00001 10.83257
v 50.44454 3.73002 10.83257
v 25.22062 3.73003 10.83257
v -54.17457 0.00001 10.83257
v 54.17456 0 10.83257
v 50.44454 3.73002 10.83257
v -54.17457 0.00001 10.83257
v 0.0033 3.73003 10.83257
v -25.22062 3.73003 10.83257
v 25.22062 3.73003 10.83257
v -50.44454 79.3952 10.83258
v -50.44453 104.61913 10.83258
v -54.17456 108.34914 10.83258
v -50.44455 28.95396 10.83257
v -50.44454 79.3952 10.83258
v -54.17456 108.34914 10.83258
v -50.44455 28.95396 10.83257
v -54.17456 108.34914 10.83258
v -50.44455 3.73003 10.83257
v -54.17457 0.00001 10.83257
v -50.44454 54.17789 10.83257
v -50.44454 79.3952 10.83258
v -50.44455 28.95396 10.83257
v 50.44456 104.61911 10.83258
v 50.44455 79.39519 10.83258
v 54.17456 0 10.83257
v 54.17457 108.34913 10.83258
v 50.44456 104.61911 10.83258
v 54.17456 0 10.83257
v 50.44454 3.73002 10.83257
v 54.17456 0 10.83257
v 50.44455 28.95395 10.83257
v 50.44455 79.39519 10.83258
v 50.44455 54.17787 10.83257
v 50.44456 104.61911 10.83258
v 50.44456 104.61912 -7.38102
v 50.44454 3.73003 -7.38103
v 50.44455 54.17787 10.83257
v 50.44456 104.61911 10.83258
v 50.44454 3.73003 -7.38103
v 50.44455 54.17787 10.83257
v 50.44454 3.73003 -7.38103
v 50.44455 28.95395 10.83257
v 50.44454 3.73002 10.83257
v 50.44455 79.39519 10.83258
v 50.44456 104.61911 10.83258
v 50.44455 54.17787 10.83257
v -50.44455 3.73004 -7.38103
v -50.44453 104.61913 -7.38102
v -50.44453 104.61913 10.83258
v -50.44454 79.3952 10.83258
v -50.44455 3.73004 -7.38103
v -50.44453 104.61913 10.83258
v -50.44455 28.95396 10.83257
v -50.44455 3.73004 -7.38103
v -50.44454 79.3952 10.83258
v -50.44454 54.17789 10.83257
v -50.44455 28.95396 10.83257
v -50.44454 79.3952 10.83258
v -50.44455 3.73003 10.83257
v -50.44455 3.73004 -7.38103
v -50.44455 28.95396 10.83257
v 54.17456 0 -10.8399
v 54.17457 108.34914 -10.83988
v 54.17456 0 10.83257
v 54.17457 108.34913 10.83258
v -54.17456 108.34914 -10.83988
v -54.17457 0.00002 -10.8399
v -54.17456 108.34914 10.83258
v -54.17457 0.00001 10.83257
v -54.17457 0.00002 -10.8399
v 54.17456 0 -10.8399
v -54.17457 0.00001 10.83257
v 54.17456 0 10.83257
v 54.17457 108.34914 -10.83988
v -54.17456 108.34914 -10.83988
v 54.17456 0 -10.8399
v -54.17457 0.00002 -10.8399
v 50.44454 3.73003 -7.38103
v -50.44455 3.73004 -7.38103
v 50.44454 3.73002 10.83257
v 0.0033 3.73003 10.83257
v -25.22062 3.73003 10.83257
v -50.44455 3.73003 10.83257
v 25.22062 3.73003 10.83257
v 50.44454 3.73002 10.83257
v 0.0033 3.73003 10.83257

# Vertex Texture Coordinates:
vt 0.99463 0.03639 
vt 0.00708 0.03639 
vt 0.99463 0.30379 
vt 0.50085 0.30379 
vt 0.50085 0.30379 
vt 0.00708 0.03639 
vt 0.25397 0.30379 
vt 0.00708 0.30379 
vt 0.74774 0.30379 
vt 0.99463 0.30379 
vt 0.50085 0.30379 
vt 0.00977 0.19096 
vt 0.96948 0.19096 
vt 0.00977 0.47888 
vt 0.96948 0.47888 
vt 0.24591 0.03443 
vt 0.1768 0.03443 
vt 0.16654 0 
vt 0.38388 0.03443 
vt 0.24591 0.03443 
vt 0.16654 0 
vt 0.38388 0.03443 
vt 0.16654 0 
vt 0.45275 0.03443 
vt 0.463 0 
vt 0.31477 0.03443 
vt 0.24591 0.03443 
vt 0.38388 0.03443 
vt 0.38388 0.96557 
vt 0.45275 0.96557 
vt 0.463 1 
vt 0.24591 0.96557 
vt 0.38388 0.96557 
vt 0.463 1 
vt 0.1768 0.96557 
vt 0.24591 0.96557 
vt 0.463 1 
vt 0.16654 1 
vt 0.1768 0.96557 
vt 0.463 1 
vt 0.31477 0.96557 
vt 0.38388 0.96557 
vt 0.24591 0.96557 
vt 0.33919 0.11038 
vt 0.19853 0.11038 
vt 0.17778 0.07912 
vt 0.62076 0.11038 
vt 0.33919 0.11038 
vt 0.17778 0.07912 
vt 0.62076 0.11038 
vt 0.17778 0.07912 
vt 0.76142 0.11038 
vt 0.78242 0.07912 
vt 0.4801 0.11038 
vt 0.33919 0.11038 
vt 0.62076 0.11038 
vt 0.19853 0.95482 
vt 0.33919 0.95482 
vt 0.78242 0.98608 
vt 0.17778 0.98608 
vt 0.19853 0.95482 
vt 0.78242 0.98608 
vt 0.76142 0.95482 
vt 0.78242 0.98608 
vt 0.62076 0.95482 
vt 0.33919 0.95482 
vt 0.4801 0.95482 
vt 0.9558 0.27302 
vt 0.9558 0.01734 
vt 0.01099 0.01734 
vt 0.48327 0.27302 
vt 0.9558 0.27302 
vt 0.01099 0.01734 
vt 0.48327 0.27302 
vt 0.01099 0.01734 
vt 0.24713 0.27302 
vt 0.01099 0.27302 
vt 0.71966 0.27302 
vt 0.9558 0.27302 
vt 0.48327 0.27302 
vt 0.01099 0.01734 
vt 0.9558 0.01734 
vt 0.9558 0.27302 
vt 0.71966 0.27302 
vt 0.01099 0.01734 
vt 0.9558 0.27302 
vt 0.24713 0.27302 
vt 0.01099 0.01734 
vt 0.71966 0.27302 
vt 0.48327 0.27302 
vt 0.24713 0.27302 
vt 0.71966 0.27302 
vt 0.01099 0.27302 
vt 0.01099 0.01734 
vt 0.24713 0.27302 
vt 0.00781 0.48571 
vt 0.98706 0.48571 
vt 0.00781 0.77949 
vt 0.98706 0.77949 
vt 0.98706 0.48571 
vt 0.00781 0.48571 
vt 0.98706 0.77949 
vt 0.00781 0.77949 
vt 0.61905 0.47009 
vt 0.41099 0.47009 
vt 0.61905 0.5326 
vt 0.41099 0.5326 
vt 1 0 
vt 1 1 
vt 0 0 
vt 0 1 
vt 0.00708 0.03639 
vt 0.99463 0.03639 
vt 0.00708 0.30379 
vt 0.50085 0.30379 
vt 0.74774 0.30379 
vt 0.99463 0.30379 
vt 0.25397 0.30379 
vt 0.00708 0.30379 
vt 0.50085 0.30379 

# Vertex Surface Normals:
vn -0 -2.08214 -0
vn -0 -2.08214 -0
vn -0 -2.08214 -0
vn -0 -2.08214 -0
vn -0 -2.08214 -0
vn -0 -2.08214 -0
vn -0 -2.08214 -0
vn -0 -2.08214 -0
vn -0 -2.08214 -0
vn -0 -2.08214 -0
vn -0 -2.08214 -0
vn 0 2.08214 0
vn 0 2.08214 0
vn 0 2.08214 0
vn 0 2.08214 0
vn -0 -0 2.08214
vn -0 -0 2.08214
vn -0 -0 2.08214
vn -0 -0 2.08214
vn -0 -0 2.08214
vn -0 -0 2.08214
vn -0 -0 2.08214
vn -0 -0 2.08214
vn -0 -0 2.08214
vn -0 -0 2.08214
vn -0 -0 2.08214
vn -0 -0 2.08214
vn -0 -0 2.08214
vn -0 -0 2.08214
vn -0 -0 2.08214
vn -0 -0 2.08214
vn -0 -0 2.08214
vn -0 -0 2.08214
vn -0 -0 2.08214
vn -0 -0 2.08214
vn -0 -0 2.08214
vn -0 -0 2.08214
vn -0 -0 2.08214
vn -0 -0 2.08214
vn -0 -0 2.08214
vn -0 -0 2.08214
vn -0 -0 2.08214
vn -0 -0 2.08214
vn -0 -0 2.08214
vn -0 -0 2.08214
vn -0 -0 2.08214
vn -0 -0 2.08214
vn -0 -0 2.08214
vn -0 -0 2.08214
vn -0 -0 2.08214
vn -0 -0 2.08214
vn -0 -0 2.08214
vn -0 -0 2.08214
vn -0 -0 2.08214
vn -0 -0 2.08214
vn -0 -0 2.08214
vn -0 -0 2.08214
vn -0 -0 2.08214
vn -0 -0 2.08214
vn -0 -0 2.08214
vn -0 -0 2.08214
vn -0 -0 2.08214
vn -0 -0 2.08214
vn -0 -0 2.08214
vn -0 -0 2.08214
vn -0 -0 2.08214
vn -0 -0 2.08214
vn -2.08214 0 0
vn -2.08214 0 0
vn -2.08214 0 0
vn -2.08214 0 0
vn -2.08214 0 0
vn -2.08214 0 0
vn -2.08214 0 0
vn -2.08214 0 0
vn -2.08214 0 0
vn -2.08214 0 0
vn -2.08214 0 0
vn -2.08214 0 0
vn -2.08214 0 0
vn 2.08214 -0 -0
vn 2.08214 -0 -0
vn 2.08214 -0 -0
vn 2.08214 -0 -0
vn 2.08214 -0 -0
vn 2.08214 -0 -0
vn 2.08214 -0 -0
vn 2.08214 -0 -0
vn 2.08214 -0 -0
vn 2.08214 -0 -0
vn 2.08214 -0 -0
vn 2.08214 -0 -0
vn 2.08214 -0 -0
vn 2.08214 -0 -0
vn 2.08214 -0 -0
vn 2.08214 -0 -0
vn 2.08214 -0 -0
vn 2.08214 -0 -0
vn 2.08214 -0 -0
vn -2.08214 0 0
vn -2.08214 0 0
vn -2.08214 0 0
vn -2.08214 0 0
vn -0 -2.08214 -0
vn -0 -2.08214 -0
vn -0 -2.08214 -0
vn -0 -2.08214 -0
vn -0 -0 2.08214
vn -0 -0 2.08214
vn -0 -0 2.08214
vn -0 -0 2.08214
vn 0 2.08214 0
vn 0 2.08214 0
vn 0 2.08214 0
vn 0 2.08214 0
vn 0 2.08214 0
vn 0 2.08214 0
vn 0 2.08214 0
vn 0 2.08214 0
vn 0 2.08214 0

# Faces:
usemtl Wood-Texture
f 1/1/1 2/2/2 3/3/3
f 2/2/2 4/4/4 3/3/3
f 5/5/5 6/6/6 7/7/7
f 6/6/6 8/8/8 7/7/7
f 9/9/9 10/10/10 11/11/11
f 12/12/12 13/13/13 14/14/14
f 13/13/13 15/15/15 14/14/14
f 16/16/16 17/17/17 18/18/18
f 19/19/19 20/20/20 21/21/21
f 22/22/22 23/23/23 24/24/24
f 23/23/23 25/25/25 24/24/24
f 26/26/26 27/27/27 28/28/28
f 29/29/29 30/30/30 31/31/31
f 32/32/32 33/33/33 34/34/34
f 35/35/35 36/36/36 37/37/37
f 38/38/38 39/39/39 40/40/40
f 41/41/41 42/42/42 43/43/43
f 44/44/44 45/45/45 46/46/46
f 47/47/47 48/48/48 49/49/49
f 50/50/50 51/51/51 52/52/52
f 51/51/51 53/53/53 52/52/52
f 54/54/54 55/55/55 56/56/56
f 57/57/57 58/58/58 59/59/59
f 60/60/60 61/61/61 62/62/62
f 63/63/63 64/64/64 65/65/65
f 64/64/64 66/66/66 65/65/65
f 66/66/66 67/67/67 65/65/65
f 68/68/68 69/69/69 70/70/70
f 71/71/71 72/72/72 73/73/73
f 74/74/74 75/75/75 76/76/76
f 75/75/75 77/77/77 76/76/76
f 78/78/78 79/79/79 80/80/80
f 81/81/81 82/82/82 83/83/83
f 84/84/84 85/85/85 86/86/86
f 87/87/87 88/88/88 89/89/89
f 90/90/90 91/91/91 92/92/92
f 93/93/93 94/94/94 95/95/95
f 96/96/96 97/97/97 98/98/98
f 97/97/97 99/99/99 98/98/98
f 100/100/100 101/101/101 102/102/102
f 101/101/101 103/103/103 102/102/102
f 104/104/104 105/105/105 106/106/106
f 105/105/105 107/107/107 106/106/106
f 108/108/108 109/109/109 110/110/110
f 109/109/109 111/111/111 110/110/110
f 112/112/112 113/113/113 114/114/114
f 114/114/114 113/113/113 115/115/115
f 115/115/115 113/113/113 116/116/116
f 113/113/113 117/117/117 116/116/116
f 118/118/118 119/119/119 120/120/120
g x-axis-dividers

# Vertex Positions:
v 50.6428 80.0862 10.8399
v -50.6428 80.08621 10.8399
v 50.6428 80.0862 -7.36097
v -50.6428 80.08621 -7.36097
v -50.6428 80.08621 10.8399
v -50.6428 83.5607 10.8399
v -50.6428 80.08621 -7.36097
v -50.6428 83.5607 -7.36097
v -50.6428 83.5607 10.8399
v 50.6428 83.56068 10.8399
v -50.6428 83.5607 -7.36097
v 50.6428 83.56068 -7.36097
v 50.6428 83.56068 10.8399
v 50.6428 80.0862 10.8399
v 50.6428 83.56068 -7.36097
v 50.6428 80.0862 -7.36097
v -50.6428 83.5607 -7.36097
v 50.6428 83.56068 -7.36097
v -50.6428 80.08621 -7.36097
v 50.6428 80.0862 -7.36097
v -50.6428 80.08621 10.8399
v 50.6428 80.0862 10.8399
v -50.6428 83.5607 10.8399
v 50.6428 83.56068 10.8399
v 50.6428 41.93486 10.83989
v -50.6428 41.93487 10.83989
v 50.6428 41.93486 -7.36097
v -50.6428 41.93487 -7.36097
v -50.6428 41.93487 10.83989
v -50.6428 45.40936 10.83989
v -50.6428 41.93487 -7.36097
v -50.6428 45.40936 -7.36097
v -50.6428 45.40936 10.83989
v 50.6428 45.40934 10.83989
v -50.6428 45.40936 -7.36097
v 50.6428 45.40934 -7.36097
v 50.6428 45.40934 10.83989
v 50.6428 41.93486 10.83989
v 50.6428 45.40934 -7.36097
v 50.6428 41.93486 -7.36097
v -50.6428 45.40936 -7.36097
v 50.6428 45.40934 -7.36097
v -50.6428 41.93487 -7.36097
v 50.6428 41.93486 -7.36097
v -50.6428 41.93487 10.83989
v 50.6428 41.93486 10.83989
v -50.6428 45.40936 10.83989
v 50.6428 45.40934 10.83989
v 50.6428 21.35996 10.83989
v -50.6428 21.35998 10.83989
v 50.6428 21.35996 -7.36098
v -50.6428 21.35998 -7.36098
v -50.6428 21.35998 10.83989
v -50.6428 24.83446 10.83989
v -50.6428 21.35998 -7.36098
v -50.6428 24.83446 -7.36097
v -50.6428 24.83446 10.83989
v 50.6428 24.83445 10.83989
v -50.6428 24.83446 -7.36097
v 50.6428 24.83445 -7.36097
v 50.6428 24.83445 10.83989
v 50.6428 21.35996 10.83989
v 50.6428 24.83445 -7.36097
v 50.6428 21.35996 -7.36098
v -50.6428 24.83446 -7.36097
v 50.6428 24.83445 -7.36097
v -50.6428 21.35998 -7.36098
v 50.6428 21.35996 -7.36098
v -50.6428 21.35998 10.83989
v 50.6428 21.35996 10.83989
v -50.6428 24.83446 10.83989
v 50.6428 24.83445 10.83989

# Vertex Texture Coordinates:
vt 0.08661 0.25003 
vt 0.99019 0.25003 
vt 0.08661 0.0066 
vt 0.99019 0.0066 
vt 0.99865 0.23199 
vt 0.99865 0.19925 
vt 0.99865 0.23199 
vt 0.99865 0.19925 
vt 0.99019 0.25003 
vt 0.08661 0.25003 
vt 0.99019 0.0066 
vt 0.08661 0.0066 
vt 0.36212 0.19925 
vt 0.36212 0.23199 
vt 0.36212 0.19925 
vt 0.36212 0.23199 
vt 0.99865 0.19925 
vt 0.36212 0.19925 
vt 0.99865 0.23199 
vt 0.36212 0.23199 
vt 0.99865 0.23199 
vt 0.36212 0.23199 
vt 0.99865 0.19925 
vt 0.36212 0.19925 
vt 0.08661 0.25003 
vt 0.99019 0.25003 
vt 0.08661 0.0066 
vt 0.99019 0.0066 
vt 0.99865 0.59169 
vt 0.99865 0.55895 
vt 0.99865 0.59169 
vt 0.99865 0.55895 
vt 0.99019 0.25003 
vt 0.08661 0.25003 
vt 0.99019 0.0066 
vt 0.08661 0.0066 
vt 0.36212 0.55895 
vt 0.36212 0.59169 
vt 0.36212 0.55895 
vt 0.36212 0.59169 
vt 0.99865 0.55895 
vt 0.36212 0.55895 
vt 0.99865 0.59169 
vt 0.36212 0.59169 
vt 0.99865 0.59169 
vt 0.36212 0.59169 
vt 0.99865 0.55895 
vt 0.36212 0.55895 
vt 0.08661 0.25003 
vt 0.99019 0.25003 
vt 0.08661 0.0066 
vt 0.99019 0.0066 
vt 0.99865 0.78568 
vt 0.99865 0.75294 
vt 0.99865 0.78568 
vt 0.99865 0.75294 
vt 0.99019 0.25003 
vt 0.08661 0.25003 
vt 0.99019 0.0066 
vt 0.08661 0.0066 
vt 0.36212 0.75294 
vt 0.36212 0.78568 
vt 0.36212 0.75294 
vt 0.36212 0.78568 
vt 0.99865 0.75294 
vt 0.36212 0.75294 
vt 0.99865 0.78568 
vt 0.36212 0.78568 
vt 0.99865 0.78568 
vt 0.36212 0.78568 
vt 0.99865 0.75294 
vt 0.36212 0.75294 

# Vertex Surface Normals:
vn -0 -2.00039 -0
vn -0 -2.00039 -0
vn -0 -2.00039 -0
vn -0 -2.00039 -0
vn -2.00039 0 0
vn -2.00039 0 0
vn -2.00039 0 0
vn -2.00039 0 0
vn 0 2.00039 0
vn 0 2.00039 0
vn 0 2.00039 0
vn 0 2.00039 0
vn 2.00039 -0 -0
vn 2.00039 -0 -0
vn 2.00039 -0 -0
vn 2.00039 -0 -0
vn 0 0 -2.00039
vn 0 0 -2.00039
vn 0 0 -2.00039
vn 0 0 -2.00039
vn -0 -0 2.00039
vn -0 -0 2.00039
vn -0 -0 2.00039
vn -0 -0 2.00039
vn -0 -2.00039 -0
vn -0 -2.00039 -0
vn -0 -2.00039 -0
vn -0 -2.00039 -0
vn -2.00039 0 0
vn -2.00039 0 0
vn -2.00039 0 0
vn -2.00039 0 0
vn 0 2.00039 0
vn 0 2.00039 0
vn 0 2.00039 0
vn 0 2.00039 0
vn 2.00039 -0 -0
vn 2.00039 -0 -0
vn 2.00039 -0 -0
vn 2.00039 -0 -0
vn 0 0 -2.00039
vn 0 0 -2.00039
vn 0 0 -2.00039
vn 0 0 -2.00039
vn -0 -0 2.00039
vn -0 -0 2.00039
vn -0 -0 2.00039
vn -0 -0 2.00039
vn -0 -2.00039 -0
vn -0 -2.00039 -0
vn -0 -2.00039 -0
vn -0 -2.00039 -0
vn -2.00039 0 0
vn -2.00039 0 0
vn -2.00039 0 0
vn -2.00039 0 0
vn 0 2.00039 0
vn 0 2.00039 0
vn 0 2.00039 0
vn 0 2.00039 0
vn 2.00039 -0 -0
vn 2.00039 -0 -0
vn 2.00039 -0 -0
vn 2.00039 -0 -0
vn 0 0 -2.00039
vn 0 0 -2.00039
vn 0 0 -2.00039
vn 0 0 -2.00039
vn -0 -0 2.00039
vn -0 -0 2.00039
vn -0 -0 2.00039
vn -0 -0 2.00039

# Faces:
usemtl Wood-Texture
f 121/121/121 122/122/122 123/123/123
f 122/122/122 124/124/124 123/123/123
f 125/125/125 126/126/126 127/127/127
f 126/126/126 128/128/128 127/127/127
f 129/129/129 130/130/130 131/131/131
f 130/130/130 132/132/132 131/131/131
f 133/133/133 134/134/134 135/135/135
f 134/134/134 136/136/136 135/135/135
f 137/137/137 138/138/138 139/139/139
f 138/138/138 140/140/140 139/139/139
f 141/141/141 142/142/142 143/143/143
f 142/142/142 144/144/144 143/143/143
f 145/145/145 146/146/146 147/147/147
f 146/146/146 148/148/148 147/147/147
f 149/149/149 150/150/150 151/151/151
f 150/150/150 152/152/152 151/151/151
f 153/153/153 154/154/154 155/155/155
f 154/154/154 156/156/156 155/155/155
f 157/157/157 158/158/158 159/159/159
f 158/158/158 160/160/160 159/159/159
f 161/161/161 162/162/162 163/163/163
f 162/162/162 164/164/164 163/163/163
f 165/165/165 166/166/166 167/167/167
f 166/166/166 168/168/168 167/167/167
f 169/169/169 170/170/170 171/171/171
f 170/170/170 172/172/172 171/171/171
f 173/173/173 174/174/174 175/175/175
f 174/174/174 176/176/176 175/175/175
f 177/177/177 178/178/178 179/179/179
f 178/178/178 180/180/180 179/179/179
f 181/181/181 182/182/182 183/183/183
f 182/182/182 184/184/184 183/183/183
f 185/185/185 186/186/186 187/187/187
f 186/186/186 188/188/188 187/187/187
f 189/189/189 190/190/190 191/191/191
f 190/190/190 192/192/192 191/191/191
g y-axis-dividers

# Vertex Positions:
v 12.16829 104.74405 10.34479
v 12.16828 3.45844 10.34478
v 12.16829 104.74405 -7.85607
v 12.16828 3.45845 -7.85609
v 12.16828 3.45844 10.34478
v 8.68761 3.45844 10.34478
v 12.16828 3.45845 -7.85609
v 8.68761 3.45845 -7.85609
v 8.68761 3.45844 10.34478
v 8.68762 104.74405 10.34479
v 8.68761 3.45845 -7.85609
v 8.68762 104.74405 -7.85607
v 8.68762 104.74405 10.34479
v 12.16829 104.74405 10.34479
v 8.68762 104.74405 -7.85607
v 12.16829 104.74405 -7.85607
v 8.68761 3.45845 -7.85609
v 8.68762 104.74405 -7.85607
v 12.16828 3.45845 -7.85609
v 12.16829 104.74405 -7.85607
v 12.16828 3.45844 10.34478
v 12.16829 104.74405 10.34479
v 8.68761 3.45844 10.34478
v 8.68762 104.74405 10.34479
v -8.69099 104.74405 10.34479
v -8.69101 3.45845 10.34478
v -8.69099 104.74405 -7.85607
v -8.69101 3.45845 -7.85609
v -8.69101 3.45845 -7.85609
v -8.69101 3.45845 10.34478
v -12.16549 3.45845 10.34478
v -12.16549 3.45845 -7.85609
v -8.69101 3.45845 -7.85609
v -12.16549 3.45845 10.34478
v -12.16549 3.45845 10.34478
v -12.16548 104.74405 10.34479
v -12.16549 3.45845 -7.85609
v -12.16548 104.74405 -7.85607
v -12.16548 104.74405 -7.85607
v -12.16548 104.74405 10.34479
v -8.69099 104.74405 10.34479
v -8.69099 104.74405 -7.85607
v -12.16548 104.74405 -7.85607
v -8.69099 104.74405 10.34479
v -12.16549 3.45845 -7.85609
v -12.16548 104.74405 -7.85607
v -8.69101 3.45845 -7.85609
v -8.69099 104.74405 -7.85607
v -8.69101 3.45845 10.34478
v -8.69099 104.74405 10.34479
v -12.16549 3.45845 10.34478
v -12.16548 104.74405 10.34479

# Vertex Texture Coordinates:
vt 0.66971 0.0867 
vt 0.00309 0.0867 
vt 0.66971 0.00692 
vt 0.00309 0.00692 
vt 0.04229 0.3823 
vt 0.04229 0.41343 
vt 0.04229 0.3823 
vt 0.04229 0.41343 
vt 0.66971 0.3265 
vt 0.00309 0.3265 
vt 0.66971 0.24649 
vt 0.00309 0.24649 
vt 0.94733 0.41343 
vt 0.94733 0.3823 
vt 0.94733 0.41343 
vt 0.94733 0.3823 
vt 0.04229 0.41343 
vt 0.94733 0.41343 
vt 0.04229 0.3823 
vt 0.94733 0.3823 
vt 0.04229 0.3823 
vt 0.94733 0.3823 
vt 0.04229 0.41343 
vt 0.94733 0.41343 
vt 0.66971 0.24649 
vt 0.00309 0.24649 
vt 0.66971 0.16671 
vt 0.00309 0.16671 
vt 0.04229 0.56861 
vt 0.04229 0.56861 
vt 0.04229 0.59974 
vt 0.04229 0.59974 
vt 0.04229 0.56861 
vt 0.04229 0.59974 
vt 0.66971 0.16671 
vt 0.00309 0.16671 
vt 0.66971 0.0867 
vt 0.00309 0.0867 
vt 0.94733 0.59974 
vt 0.94733 0.59974 
vt 0.94733 0.56861 
vt 0.94733 0.56861 
vt 0.94733 0.59974 
vt 0.94733 0.56861 
vt 0.04229 0.59974 
vt 0.94733 0.59974 
vt 0.04229 0.56861 
vt 0.94733 0.56861 
vt 0.04229 0.56861 
vt 0.94733 0.56861 
vt 0.04229 0.59974 
vt 0.94733 0.59974 

# Vertex Surface Normals:
vn 2.00039 -0 -0
vn 2.00039 -0 -0
vn 2.00039 -0 -0
vn 2.00039 -0 -0
vn -0 -2.00039 -0
vn -0 -2.00039 -0
vn -0 -2.00039 -0
vn -0 -2.00039 -0
vn -2.00039 0 0
vn -2.00039 0 0
vn -2.00039 0 0
vn -2.00039 0 0
vn 0 2.00039 0
vn 0 2.00039 0
vn 0 2.00039 0
vn 0 2.00039 0
vn 0 0 -2.00039
vn 0 0 -2.00039
vn 0 0 -2.00039
vn 0 0 -2.00039
vn -0 -0 2.00039
vn -0 -0 2.00039
vn -0 -0 2.00039
vn -0 -0 2.00039
vn 2.00039 -0 -0
vn 2.00039 -0 -0
vn 2.00039 -0 -0
vn 2.00039 -0 -0
vn -0 -2.00039 -0
vn -0 -2.00039 -0
vn -0 -2.00039 -0
vn -0 -2.00039 -0
vn -0 -2.00039 -0
vn -0 -2.00039 -0
vn -2.00039 0 0
vn -2.00039 0 0
vn -2.00039 0 0
vn -2.00039 0 0
vn 0 2.00039 0
vn 0 2.00039 0
vn 0 2.00039 0
vn 0 2.00039 0
vn 0 2.00039 0
vn 0 2.00039 0
vn 0 0 -2.00039
vn 0 0 -2.00039
vn 0 0 -2.00039
vn 0 0 -2.00039
vn -0 -0 2.00039
vn -0 -0 2.00039
vn -0 -0 2.00039
vn -0 -0 2.00039

# Faces:
usemtl y-axis-dividersy-axis-mat
f 193/193/193 194/194/194 195/195/195
f 194/194/194 196/196/196 195/195/195
f 197/197/197 198/198/198 199/199/199
f 198/198/198 200/200/200 199/199/199
f 201/201/201 202/202/202 203/203/203
f 202/202/202 204/204/204 203/203/203
f 205/205/205 206/206/206 207/207/207
f 206/206/206 208/208/208 207/207/207
f 209/209/209 210/210/210 211/211/211
f 210/210/210 212/212/212 211/211/211
f 213/213/213 214/214/214 215/215/215
f 214/214/214 216/216/216 215/215/215
f 217/217/217 218/218/218 219/219/219
f 218/218/218 220/220/220 219/219/219
f 221/221/221 222/222/222 223/223/223
f 224/224/224 225/225/225 226/226/226
f 227/227/227 228/228/228 229/229/229
f 228/228/228 230/230/230 229/229/229
f 231/231/231 232/232/232 233/233/233
f 234/234/234 235/235/235 236/236/236
f 237/237/237 238/238/238 239/239/239
f 238/238/238 240/240/240 239/239/239
f 241/241/241 242/242/242 243/243/243
f 242/242/242 244/244/244 243/243/243
